STARTFONT 2.1
FONT -FontForge-Silkscreen-Book-R-Normal--8-60-100-100-P-56-ISO10646-1
SIZE 6 100 100
FONTBOUNDINGBOX 9 10 0 -2
COMMENT "Generated by fontforge, http://fontforge.sourceforge.net"
COMMENT "Copyright (c) Jason Kottke, 2001. All rights reserved."
STARTPROPERTIES 39
FOUNDRY "FontForge"
FAMILY_NAME "Silkscreen"
WEIGHT_NAME "Book"
SLANT "R"
SETWIDTH_NAME "Normal"
ADD_STYLE_NAME ""
PIXEL_SIZE 8
POINT_SIZE 60
RESOLUTION_X 100
RESOLUTION_Y 100
SPACING "P"
AVERAGE_WIDTH 56
CHARSET_REGISTRY "ISO10646"
CHARSET_ENCODING "1"
FONTNAME_REGISTRY ""
CHARSET_COLLECTIONS "ISO10646-1"
FONT_NAME "Silkscreen"
FACE_NAME "Silkscreen"
COPYRIGHT "Copyright (c) Jason Kottke, 2001. All rights reserved."
FONT_VERSION "1.1; 2001"
FONT_ASCENT 6
FONT_DESCENT 2
UNDERLINE_POSITION -1
UNDERLINE_THICKNESS 1
X_HEIGHT 4
CAP_HEIGHT 4
RAW_ASCENT 800
RAW_DESCENT 200
NORM_SPACE 4
RELATIVE_WEIGHT 40
RELATIVE_SETWIDTH 50
SUPERSCRIPT_X 0
SUPERSCRIPT_Y 3
SUPERSCRIPT_SIZE 5
SUBSCRIPT_X 0
SUBSCRIPT_Y 1
SUBSCRIPT_SIZE 5
AVG_LOWERCASE_WIDTH 58
AVG_UPPERCASE_WIDTH 57
ENDPROPERTIES
CHARS 221
STARTCHAR space
ENCODING 32
SWIDTH 500 0
DWIDTH 4 0
BBX 1 1 0 0
BITMAP
00
ENDCHAR
STARTCHAR exclam
ENCODING 33
SWIDTH 375 0
DWIDTH 3 0
BBX 1 5 1 0
BITMAP
80
80
80
00
80
ENDCHAR
STARTCHAR quotedbl
ENCODING 34
SWIDTH 625 0
DWIDTH 5 0
BBX 3 2 1 3
BITMAP
A0
A0
ENDCHAR
STARTCHAR numbersign
ENCODING 35
SWIDTH 875 0
DWIDTH 7 0
BBX 5 5 1 0
BITMAP
50
F8
50
F8
50
ENDCHAR
STARTCHAR dollar
ENCODING 36
SWIDTH 750 0
DWIDTH 6 0
BBX 4 7 1 -1
BITMAP
20
70
80
60
10
E0
40
ENDCHAR
STARTCHAR percent
ENCODING 37
SWIDTH 875 0
DWIDTH 7 0
BBX 5 5 1 0
BITMAP
D0
D0
20
58
58
ENDCHAR
STARTCHAR ampersand
ENCODING 38
SWIDTH 750 0
DWIDTH 6 0
BBX 4 7 1 -1
BITMAP
20
70
80
60
80
70
20
ENDCHAR
STARTCHAR quotesingle
ENCODING 39
SWIDTH 375 0
DWIDTH 3 0
BBX 1 2 1 3
BITMAP
80
80
ENDCHAR
STARTCHAR parenleft
ENCODING 40
SWIDTH 500 0
DWIDTH 4 0
BBX 2 5 1 0
BITMAP
40
80
80
80
40
ENDCHAR
STARTCHAR parenright
ENCODING 41
SWIDTH 500 0
DWIDTH 4 0
BBX 2 5 1 0
BITMAP
80
40
40
40
80
ENDCHAR
STARTCHAR asterisk
ENCODING 42
SWIDTH 875 0
DWIDTH 7 0
BBX 5 5 1 0
BITMAP
20
A8
70
A8
20
ENDCHAR
STARTCHAR plus
ENCODING 43
SWIDTH 875 0
DWIDTH 7 0
BBX 5 5 1 0
BITMAP
20
20
F8
20
20
ENDCHAR
STARTCHAR comma
ENCODING 44
SWIDTH 500 0
DWIDTH 4 0
BBX 2 2 1 -1
BITMAP
40
80
ENDCHAR
STARTCHAR hyphen
ENCODING 45
SWIDTH 625 0
DWIDTH 5 0
BBX 3 1 1 2
BITMAP
E0
ENDCHAR
STARTCHAR period
ENCODING 46
SWIDTH 375 0
DWIDTH 3 0
BBX 1 1 1 0
BITMAP
80
ENDCHAR
STARTCHAR slash
ENCODING 47
SWIDTH 625 0
DWIDTH 5 0
BBX 3 5 1 0
BITMAP
20
20
40
80
80
ENDCHAR
STARTCHAR zero
ENCODING 48
SWIDTH 750 0
DWIDTH 6 0
BBX 4 5 1 0
BITMAP
60
90
90
90
60
ENDCHAR
STARTCHAR one
ENCODING 49
SWIDTH 625 0
DWIDTH 5 0
BBX 3 5 1 0
BITMAP
C0
40
40
40
E0
ENDCHAR
STARTCHAR two
ENCODING 50
SWIDTH 750 0
DWIDTH 6 0
BBX 4 5 1 0
BITMAP
E0
10
60
80
F0
ENDCHAR
STARTCHAR three
ENCODING 51
SWIDTH 750 0
DWIDTH 6 0
BBX 4 5 1 0
BITMAP
E0
10
60
10
E0
ENDCHAR
STARTCHAR four
ENCODING 52
SWIDTH 750 0
DWIDTH 6 0
BBX 4 5 1 0
BITMAP
A0
A0
F0
20
20
ENDCHAR
STARTCHAR five
ENCODING 53
SWIDTH 750 0
DWIDTH 6 0
BBX 4 5 1 0
BITMAP
F0
80
E0
10
E0
ENDCHAR
STARTCHAR six
ENCODING 54
SWIDTH 750 0
DWIDTH 6 0
BBX 4 5 1 0
BITMAP
60
80
E0
90
60
ENDCHAR
STARTCHAR seven
ENCODING 55
SWIDTH 750 0
DWIDTH 6 0
BBX 4 5 1 0
BITMAP
F0
10
20
40
40
ENDCHAR
STARTCHAR eight
ENCODING 56
SWIDTH 750 0
DWIDTH 6 0
BBX 4 5 1 0
BITMAP
60
90
60
90
60
ENDCHAR
STARTCHAR nine
ENCODING 57
SWIDTH 750 0
DWIDTH 6 0
BBX 4 5 1 0
BITMAP
60
90
70
10
60
ENDCHAR
STARTCHAR colon
ENCODING 58
SWIDTH 375 0
DWIDTH 3 0
BBX 1 3 1 1
BITMAP
80
00
80
ENDCHAR
STARTCHAR semicolon
ENCODING 59
SWIDTH 500 0
DWIDTH 4 0
BBX 2 4 1 0
BITMAP
40
00
40
80
ENDCHAR
STARTCHAR less
ENCODING 60
SWIDTH 625 0
DWIDTH 5 0
BBX 3 5 1 0
BITMAP
20
40
80
40
20
ENDCHAR
STARTCHAR equal
ENCODING 61
SWIDTH 625 0
DWIDTH 5 0
BBX 3 3 1 1
BITMAP
E0
00
E0
ENDCHAR
STARTCHAR greater
ENCODING 62
SWIDTH 625 0
DWIDTH 5 0
BBX 3 5 1 0
BITMAP
80
40
20
40
80
ENDCHAR
STARTCHAR question
ENCODING 63
SWIDTH 750 0
DWIDTH 6 0
BBX 4 5 1 0
BITMAP
E0
10
60
00
40
ENDCHAR
STARTCHAR at
ENCODING 64
SWIDTH 875 0
DWIDTH 7 0
BBX 5 5 1 0
BITMAP
70
A8
B0
80
70
ENDCHAR
STARTCHAR A
ENCODING 65
SWIDTH 750 0
DWIDTH 6 0
BBX 4 5 1 0
BITMAP
60
90
F0
90
90
ENDCHAR
STARTCHAR B
ENCODING 66
SWIDTH 750 0
DWIDTH 6 0
BBX 4 5 1 0
BITMAP
E0
90
F0
90
E0
ENDCHAR
STARTCHAR C
ENCODING 67
SWIDTH 750 0
DWIDTH 6 0
BBX 4 5 1 0
BITMAP
60
90
80
90
60
ENDCHAR
STARTCHAR D
ENCODING 68
SWIDTH 750 0
DWIDTH 6 0
BBX 4 5 1 0
BITMAP
E0
90
90
90
E0
ENDCHAR
STARTCHAR E
ENCODING 69
SWIDTH 625 0
DWIDTH 5 0
BBX 3 5 1 0
BITMAP
E0
80
E0
80
E0
ENDCHAR
STARTCHAR F
ENCODING 70
SWIDTH 625 0
DWIDTH 5 0
BBX 3 5 1 0
BITMAP
E0
80
E0
80
80
ENDCHAR
STARTCHAR G
ENCODING 71
SWIDTH 750 0
DWIDTH 6 0
BBX 4 5 1 0
BITMAP
70
80
B0
90
60
ENDCHAR
STARTCHAR H
ENCODING 72
SWIDTH 750 0
DWIDTH 6 0
BBX 4 5 1 0
BITMAP
90
90
F0
90
90
ENDCHAR
STARTCHAR I
ENCODING 73
SWIDTH 375 0
DWIDTH 3 0
BBX 1 5 1 0
BITMAP
80
80
80
80
80
ENDCHAR
STARTCHAR J
ENCODING 74
SWIDTH 750 0
DWIDTH 6 0
BBX 4 5 1 0
BITMAP
10
10
10
90
60
ENDCHAR
STARTCHAR K
ENCODING 75
SWIDTH 750 0
DWIDTH 6 0
BBX 4 5 1 0
BITMAP
90
A0
C0
A0
90
ENDCHAR
STARTCHAR L
ENCODING 76
SWIDTH 625 0
DWIDTH 5 0
BBX 3 5 1 0
BITMAP
80
80
80
80
E0
ENDCHAR
STARTCHAR M
ENCODING 77
SWIDTH 875 0
DWIDTH 7 0
BBX 5 5 1 0
BITMAP
88
D8
A8
88
88
ENDCHAR
STARTCHAR N
ENCODING 78
SWIDTH 875 0
DWIDTH 7 0
BBX 5 5 1 0
BITMAP
88
C8
A8
98
88
ENDCHAR
STARTCHAR O
ENCODING 79
SWIDTH 750 0
DWIDTH 6 0
BBX 4 5 1 0
BITMAP
60
90
90
90
60
ENDCHAR
STARTCHAR P
ENCODING 80
SWIDTH 750 0
DWIDTH 6 0
BBX 4 5 1 0
BITMAP
E0
90
E0
80
80
ENDCHAR
STARTCHAR Q
ENCODING 81
SWIDTH 750 0
DWIDTH 6 0
BBX 4 6 1 -1
BITMAP
60
90
90
90
60
10
ENDCHAR
STARTCHAR R
ENCODING 82
SWIDTH 750 0
DWIDTH 6 0
BBX 4 5 1 0
BITMAP
E0
90
E0
A0
90
ENDCHAR
STARTCHAR S
ENCODING 83
SWIDTH 750 0
DWIDTH 6 0
BBX 4 5 1 0
BITMAP
70
80
60
10
E0
ENDCHAR
STARTCHAR T
ENCODING 84
SWIDTH 625 0
DWIDTH 5 0
BBX 3 5 1 0
BITMAP
E0
40
40
40
40
ENDCHAR
STARTCHAR U
ENCODING 85
SWIDTH 750 0
DWIDTH 6 0
BBX 4 5 1 0
BITMAP
90
90
90
90
60
ENDCHAR
STARTCHAR V
ENCODING 86
SWIDTH 875 0
DWIDTH 7 0
BBX 5 5 1 0
BITMAP
88
88
50
50
20
ENDCHAR
STARTCHAR W
ENCODING 87
SWIDTH 875 0
DWIDTH 7 0
BBX 5 5 1 0
BITMAP
88
A8
A8
A8
50
ENDCHAR
STARTCHAR X
ENCODING 88
SWIDTH 875 0
DWIDTH 7 0
BBX 5 5 1 0
BITMAP
88
50
20
50
88
ENDCHAR
STARTCHAR Y
ENCODING 89
SWIDTH 875 0
DWIDTH 7 0
BBX 5 5 1 0
BITMAP
88
50
20
20
20
ENDCHAR
STARTCHAR Z
ENCODING 90
SWIDTH 625 0
DWIDTH 5 0
BBX 3 5 1 0
BITMAP
E0
20
40
80
E0
ENDCHAR
STARTCHAR bracketleft
ENCODING 91
SWIDTH 500 0
DWIDTH 4 0
BBX 2 5 1 0
BITMAP
C0
80
80
80
C0
ENDCHAR
STARTCHAR backslash
ENCODING 92
SWIDTH 625 0
DWIDTH 5 0
BBX 3 5 1 0
BITMAP
80
80
40
20
20
ENDCHAR
STARTCHAR bracketright
ENCODING 93
SWIDTH 500 0
DWIDTH 4 0
BBX 2 5 1 0
BITMAP
C0
40
40
40
C0
ENDCHAR
STARTCHAR asciicircum
ENCODING 94
SWIDTH 625 0
DWIDTH 5 0
BBX 3 2 1 4
BITMAP
40
A0
ENDCHAR
STARTCHAR underscore
ENCODING 95
SWIDTH 750 0
DWIDTH 6 0
BBX 4 1 1 -1
BITMAP
F0
ENDCHAR
STARTCHAR grave
ENCODING 96
SWIDTH 500 0
DWIDTH 4 0
BBX 2 2 1 3
BITMAP
80
40
ENDCHAR
STARTCHAR a
ENCODING 97
SWIDTH 750 0
DWIDTH 6 0
BBX 4 5 1 0
BITMAP
60
90
F0
90
90
ENDCHAR
STARTCHAR b
ENCODING 98
SWIDTH 750 0
DWIDTH 6 0
BBX 4 5 1 0
BITMAP
E0
90
F0
90
E0
ENDCHAR
STARTCHAR c
ENCODING 99
SWIDTH 750 0
DWIDTH 6 0
BBX 4 5 1 0
BITMAP
60
90
80
90
60
ENDCHAR
STARTCHAR d
ENCODING 100
SWIDTH 750 0
DWIDTH 6 0
BBX 4 5 1 0
BITMAP
E0
90
90
90
E0
ENDCHAR
STARTCHAR e
ENCODING 101
SWIDTH 625 0
DWIDTH 5 0
BBX 3 5 1 0
BITMAP
E0
80
E0
80
E0
ENDCHAR
STARTCHAR f
ENCODING 102
SWIDTH 625 0
DWIDTH 5 0
BBX 3 5 1 0
BITMAP
E0
80
E0
80
80
ENDCHAR
STARTCHAR g
ENCODING 103
SWIDTH 750 0
DWIDTH 6 0
BBX 4 5 1 0
BITMAP
70
80
B0
90
60
ENDCHAR
STARTCHAR h
ENCODING 104
SWIDTH 750 0
DWIDTH 6 0
BBX 4 5 1 0
BITMAP
90
90
F0
90
90
ENDCHAR
STARTCHAR i
ENCODING 105
SWIDTH 375 0
DWIDTH 3 0
BBX 1 5 1 0
BITMAP
80
80
80
80
80
ENDCHAR
STARTCHAR j
ENCODING 106
SWIDTH 750 0
DWIDTH 6 0
BBX 4 5 1 0
BITMAP
10
10
10
90
60
ENDCHAR
STARTCHAR k
ENCODING 107
SWIDTH 750 0
DWIDTH 6 0
BBX 4 5 1 0
BITMAP
90
A0
C0
A0
90
ENDCHAR
STARTCHAR l
ENCODING 108
SWIDTH 625 0
DWIDTH 5 0
BBX 3 5 1 0
BITMAP
80
80
80
80
E0
ENDCHAR
STARTCHAR m
ENCODING 109
SWIDTH 875 0
DWIDTH 7 0
BBX 5 5 1 0
BITMAP
88
D8
A8
88
88
ENDCHAR
STARTCHAR n
ENCODING 110
SWIDTH 875 0
DWIDTH 7 0
BBX 5 5 1 0
BITMAP
88
C8
A8
98
88
ENDCHAR
STARTCHAR o
ENCODING 111
SWIDTH 750 0
DWIDTH 6 0
BBX 4 5 1 0
BITMAP
60
90
90
90
60
ENDCHAR
STARTCHAR p
ENCODING 112
SWIDTH 750 0
DWIDTH 6 0
BBX 4 5 1 0
BITMAP
E0
90
E0
80
80
ENDCHAR
STARTCHAR q
ENCODING 113
SWIDTH 750 0
DWIDTH 6 0
BBX 4 6 1 -1
BITMAP
60
90
90
90
60
10
ENDCHAR
STARTCHAR r
ENCODING 114
SWIDTH 750 0
DWIDTH 6 0
BBX 4 5 1 0
BITMAP
E0
90
E0
A0
90
ENDCHAR
STARTCHAR s
ENCODING 115
SWIDTH 750 0
DWIDTH 6 0
BBX 4 5 1 0
BITMAP
70
80
60
10
E0
ENDCHAR
STARTCHAR t
ENCODING 116
SWIDTH 625 0
DWIDTH 5 0
BBX 3 5 1 0
BITMAP
E0
40
40
40
40
ENDCHAR
STARTCHAR u
ENCODING 117
SWIDTH 750 0
DWIDTH 6 0
BBX 4 5 1 0
BITMAP
90
90
90
90
60
ENDCHAR
STARTCHAR v
ENCODING 118
SWIDTH 875 0
DWIDTH 7 0
BBX 5 5 1 0
BITMAP
88
88
50
50
20
ENDCHAR
STARTCHAR w
ENCODING 119
SWIDTH 875 0
DWIDTH 7 0
BBX 5 5 1 0
BITMAP
88
A8
A8
A8
50
ENDCHAR
STARTCHAR x
ENCODING 120
SWIDTH 875 0
DWIDTH 7 0
BBX 5 5 1 0
BITMAP
88
50
20
50
88
ENDCHAR
STARTCHAR y
ENCODING 121
SWIDTH 875 0
DWIDTH 7 0
BBX 5 5 1 0
BITMAP
88
50
20
20
20
ENDCHAR
STARTCHAR z
ENCODING 122
SWIDTH 625 0
DWIDTH 5 0
BBX 3 5 1 0
BITMAP
E0
20
40
80
E0
ENDCHAR
STARTCHAR braceleft
ENCODING 123
SWIDTH 625 0
DWIDTH 5 0
BBX 3 5 1 0
BITMAP
60
40
80
40
60
ENDCHAR
STARTCHAR bar
ENCODING 124
SWIDTH 375 0
DWIDTH 3 0
BBX 1 7 1 -1
BITMAP
80
80
80
80
80
80
80
ENDCHAR
STARTCHAR braceright
ENCODING 125
SWIDTH 625 0
DWIDTH 5 0
BBX 3 5 1 0
BITMAP
C0
40
20
40
C0
ENDCHAR
STARTCHAR asciitilde
ENCODING 126
SWIDTH 750 0
DWIDTH 6 0
BBX 4 2 1 3
BITMAP
50
A0
ENDCHAR
STARTCHAR space.dup1
ENCODING 160
SWIDTH 500 0
DWIDTH 4 0
BBX 1 1 0 0
BITMAP
00
ENDCHAR
STARTCHAR exclamdown
ENCODING 161
SWIDTH 375 0
DWIDTH 3 0
BBX 1 5 1 0
BITMAP
80
00
80
80
80
ENDCHAR
STARTCHAR cent
ENCODING 162
SWIDTH 625 0
DWIDTH 5 0
BBX 3 5 1 0
BITMAP
40
E0
80
E0
40
ENDCHAR
STARTCHAR sterling
ENCODING 163
SWIDTH 750 0
DWIDTH 6 0
BBX 4 5 1 0
BITMAP
30
20
E0
40
F0
ENDCHAR
STARTCHAR currency
ENCODING 164
SWIDTH 875 0
DWIDTH 7 0
BBX 5 5 1 0
BITMAP
A8
50
50
50
A8
ENDCHAR
STARTCHAR yen
ENCODING 165
SWIDTH 875 0
DWIDTH 7 0
BBX 5 5 1 0
BITMAP
88
70
20
70
20
ENDCHAR
STARTCHAR brokenbar
ENCODING 166
SWIDTH 375 0
DWIDTH 3 0
BBX 1 5 1 0
BITMAP
80
80
00
80
80
ENDCHAR
STARTCHAR section
ENCODING 167
SWIDTH 750 0
DWIDTH 6 0
BBX 4 7 1 -1
BITMAP
60
80
60
90
60
10
60
ENDCHAR
STARTCHAR dieresis
ENCODING 168
SWIDTH 625 0
DWIDTH 5 0
BBX 3 1 1 4
BITMAP
A0
ENDCHAR
STARTCHAR copyright
ENCODING 169
SWIDTH 1125 0
DWIDTH 9 0
BBX 7 7 1 -1
BITMAP
7C
82
BA
A2
BA
82
7C
ENDCHAR
STARTCHAR ordfeminine
ENCODING 170
SWIDTH 625 0
DWIDTH 5 0
BBX 3 3 1 2
BITMAP
40
A0
60
ENDCHAR
STARTCHAR guillemotleft
ENCODING 171
SWIDTH 875 0
DWIDTH 7 0
BBX 5 3 1 1
BITMAP
48
90
48
ENDCHAR
STARTCHAR logicalnot
ENCODING 172
SWIDTH 750 0
DWIDTH 6 0
BBX 4 2 1 1
BITMAP
F0
10
ENDCHAR
STARTCHAR minus
ENCODING 173
SWIDTH 625 0
DWIDTH 5 0
BBX 3 1 1 2
BITMAP
E0
ENDCHAR
STARTCHAR registered
ENCODING 174
SWIDTH 1125 0
DWIDTH 9 0
BBX 7 7 1 -1
BITMAP
7C
82
9A
A2
A2
82
7C
ENDCHAR
STARTCHAR macron
ENCODING 175
SWIDTH 750 0
DWIDTH 6 0
BBX 4 1 1 4
BITMAP
F0
ENDCHAR
STARTCHAR degree
ENCODING 176
SWIDTH 625 0
DWIDTH 5 0
BBX 3 3 1 2
BITMAP
40
A0
40
ENDCHAR
STARTCHAR plusminus
ENCODING 177
SWIDTH 875 0
DWIDTH 7 0
BBX 5 6 1 -1
BITMAP
20
20
F8
20
20
F8
ENDCHAR
STARTCHAR twosuperior
ENCODING 178
SWIDTH 625 0
DWIDTH 5 0
BBX 3 4 1 1
BITMAP
C0
20
40
E0
ENDCHAR
STARTCHAR threesuperior
ENCODING 179
SWIDTH 625 0
DWIDTH 5 0
BBX 3 4 1 1
BITMAP
C0
60
20
E0
ENDCHAR
STARTCHAR acute
ENCODING 180
SWIDTH 500 0
DWIDTH 4 0
BBX 2 2 1 3
BITMAP
40
80
ENDCHAR
STARTCHAR mu
ENCODING 181
SWIDTH 750 0
DWIDTH 6 0
BBX 4 6 1 -1
BITMAP
90
90
90
90
E0
80
ENDCHAR
STARTCHAR paragraph
ENCODING 182
SWIDTH 875 0
DWIDTH 7 0
BBX 5 5 1 0
BITMAP
78
A8
78
28
28
ENDCHAR
STARTCHAR periodcentered
ENCODING 183
SWIDTH 375 0
DWIDTH 3 0
BBX 1 1 1 2
BITMAP
80
ENDCHAR
STARTCHAR cedilla
ENCODING 184
SWIDTH 500 0
DWIDTH 4 0
BBX 2 2 1 -1
BITMAP
40
80
ENDCHAR
STARTCHAR onesuperior
ENCODING 185
SWIDTH 500 0
DWIDTH 4 0
BBX 2 4 1 1
BITMAP
C0
40
40
40
ENDCHAR
STARTCHAR ordmasculine
ENCODING 186
SWIDTH 625 0
DWIDTH 5 0
BBX 3 3 1 2
BITMAP
40
A0
40
ENDCHAR
STARTCHAR guillemotright
ENCODING 187
SWIDTH 875 0
DWIDTH 7 0
BBX 5 3 1 1
BITMAP
90
48
90
ENDCHAR
STARTCHAR onequarter
ENCODING 188
SWIDTH 1125 0
DWIDTH 9 0
BBX 7 5 1 0
BITMAP
90
90
AA
4E
42
ENDCHAR
STARTCHAR onehalf
ENCODING 189
SWIDTH 1125 0
DWIDTH 9 0
BBX 7 5 1 0
BITMAP
90
9C
A2
44
4E
ENDCHAR
STARTCHAR threequarters
ENCODING 190
SWIDTH 1250 0
DWIDTH 10 0
BBX 8 5 1 0
BITMAP
C8
68
35
E7
21
ENDCHAR
STARTCHAR questiondown
ENCODING 191
SWIDTH 750 0
DWIDTH 6 0
BBX 4 5 1 0
BITMAP
20
00
60
80
70
ENDCHAR
STARTCHAR Agrave
ENCODING 192
SWIDTH 750 0
DWIDTH 6 0
BBX 4 8 1 0
BITMAP
40
20
00
60
90
F0
90
90
ENDCHAR
STARTCHAR Aacute
ENCODING 193
SWIDTH 750 0
DWIDTH 6 0
BBX 4 8 1 0
BITMAP
20
40
00
60
90
F0
90
90
ENDCHAR
STARTCHAR Acircumflex
ENCODING 194
SWIDTH 750 0
DWIDTH 6 0
BBX 4 8 1 0
BITMAP
60
90
00
60
90
F0
90
90
ENDCHAR
STARTCHAR Atilde
ENCODING 195
SWIDTH 750 0
DWIDTH 6 0
BBX 4 8 1 0
BITMAP
50
A0
00
60
90
F0
90
90
ENDCHAR
STARTCHAR Adieresis
ENCODING 196
SWIDTH 750 0
DWIDTH 6 0
BBX 4 7 1 0
BITMAP
90
00
60
90
F0
90
90
ENDCHAR
STARTCHAR Aring
ENCODING 197
SWIDTH 750 0
DWIDTH 6 0
BBX 4 8 1 0
BITMAP
90
60
00
60
90
F0
90
90
ENDCHAR
STARTCHAR AE
ENCODING 198
SWIDTH 875 0
DWIDTH 7 0
BBX 5 5 1 0
BITMAP
78
A0
F8
A0
B8
ENDCHAR
STARTCHAR Ccedilla
ENCODING 199
SWIDTH 750 0
DWIDTH 6 0
BBX 4 7 1 -2
BITMAP
60
90
80
90
60
40
80
ENDCHAR
STARTCHAR Egrave
ENCODING 200
SWIDTH 625 0
DWIDTH 5 0
BBX 3 8 1 0
BITMAP
80
40
00
E0
80
E0
80
E0
ENDCHAR
STARTCHAR Eacute
ENCODING 201
SWIDTH 625 0
DWIDTH 5 0
BBX 3 8 1 0
BITMAP
20
40
00
E0
80
E0
80
E0
ENDCHAR
STARTCHAR Ecircumflex
ENCODING 202
SWIDTH 625 0
DWIDTH 5 0
BBX 3 8 1 0
BITMAP
40
A0
00
E0
80
E0
80
E0
ENDCHAR
STARTCHAR Edieresis
ENCODING 203
SWIDTH 625 0
DWIDTH 5 0
BBX 3 7 1 0
BITMAP
A0
00
E0
80
E0
80
E0
ENDCHAR
STARTCHAR Igrave
ENCODING 204
SWIDTH 375 0
DWIDTH 3 0
BBX 2 8 0 0
BITMAP
80
40
00
40
40
40
40
40
ENDCHAR
STARTCHAR Iacute
ENCODING 205
SWIDTH 375 0
DWIDTH 3 0
BBX 2 8 1 0
BITMAP
40
80
00
80
80
80
80
80
ENDCHAR
STARTCHAR Icircumflex
ENCODING 206
SWIDTH 375 0
DWIDTH 3 0
BBX 3 8 0 0
BITMAP
40
A0
00
40
40
40
40
40
ENDCHAR
STARTCHAR Idieresis
ENCODING 207
SWIDTH 375 0
DWIDTH 3 0
BBX 3 7 0 0
BITMAP
A0
00
40
40
40
40
40
ENDCHAR
STARTCHAR Eth
ENCODING 208
SWIDTH 875 0
DWIDTH 7 0
BBX 5 5 1 0
BITMAP
70
48
E8
48
70
ENDCHAR
STARTCHAR Ntilde
ENCODING 209
SWIDTH 875 0
DWIDTH 7 0
BBX 5 8 1 0
BITMAP
28
50
00
88
C8
A8
98
88
ENDCHAR
STARTCHAR Ograve
ENCODING 210
SWIDTH 750 0
DWIDTH 6 0
BBX 4 8 1 0
BITMAP
40
20
00
60
90
90
90
60
ENDCHAR
STARTCHAR Oacute
ENCODING 211
SWIDTH 750 0
DWIDTH 6 0
BBX 4 8 1 0
BITMAP
20
40
00
60
90
90
90
60
ENDCHAR
STARTCHAR Ocircumflex
ENCODING 212
SWIDTH 750 0
DWIDTH 6 0
BBX 4 8 1 0
BITMAP
60
90
00
60
90
90
90
60
ENDCHAR
STARTCHAR Otilde
ENCODING 213
SWIDTH 750 0
DWIDTH 6 0
BBX 4 8 1 0
BITMAP
50
A0
00
60
90
90
90
60
ENDCHAR
STARTCHAR Odieresis
ENCODING 214
SWIDTH 750 0
DWIDTH 6 0
BBX 4 7 1 0
BITMAP
90
00
60
90
90
90
60
ENDCHAR
STARTCHAR multiply
ENCODING 215
SWIDTH 625 0
DWIDTH 5 0
BBX 3 3 1 1
BITMAP
A0
40
A0
ENDCHAR
STARTCHAR Oslash
ENCODING 216
SWIDTH 875 0
DWIDTH 7 0
BBX 5 5 1 0
BITMAP
70
98
A8
C8
70
ENDCHAR
STARTCHAR Ugrave
ENCODING 217
SWIDTH 750 0
DWIDTH 6 0
BBX 4 8 1 0
BITMAP
40
20
00
90
90
90
90
60
ENDCHAR
STARTCHAR Uacute
ENCODING 218
SWIDTH 750 0
DWIDTH 6 0
BBX 4 8 1 0
BITMAP
20
40
00
90
90
90
90
60
ENDCHAR
STARTCHAR Ucircumflex
ENCODING 219
SWIDTH 750 0
DWIDTH 6 0
BBX 4 8 1 0
BITMAP
60
90
00
90
90
90
90
60
ENDCHAR
STARTCHAR Udieresis
ENCODING 220
SWIDTH 750 0
DWIDTH 6 0
BBX 4 7 1 0
BITMAP
90
00
90
90
90
90
60
ENDCHAR
STARTCHAR Yacute
ENCODING 221
SWIDTH 875 0
DWIDTH 7 0
BBX 5 8 1 0
BITMAP
10
20
00
88
50
20
20
20
ENDCHAR
STARTCHAR Thorn
ENCODING 222
SWIDTH 625 0
DWIDTH 5 0
BBX 3 5 1 0
BITMAP
80
C0
A0
C0
80
ENDCHAR
STARTCHAR germandbls
ENCODING 223
SWIDTH 750 0
DWIDTH 6 0
BBX 4 5 1 0
BITMAP
60
90
A0
90
A0
ENDCHAR
STARTCHAR agrave
ENCODING 224
SWIDTH 750 0
DWIDTH 6 0
BBX 4 8 1 0
BITMAP
40
20
00
60
90
F0
90
90
ENDCHAR
STARTCHAR aacute
ENCODING 225
SWIDTH 750 0
DWIDTH 6 0
BBX 4 8 1 0
BITMAP
20
40
00
60
90
F0
90
90
ENDCHAR
STARTCHAR acircumflex
ENCODING 226
SWIDTH 750 0
DWIDTH 6 0
BBX 4 8 1 0
BITMAP
60
90
00
60
90
F0
90
90
ENDCHAR
STARTCHAR atilde
ENCODING 227
SWIDTH 750 0
DWIDTH 6 0
BBX 4 8 1 0
BITMAP
50
A0
00
60
90
F0
90
90
ENDCHAR
STARTCHAR adieresis
ENCODING 228
SWIDTH 750 0
DWIDTH 6 0
BBX 4 7 1 0
BITMAP
90
00
60
90
F0
90
90
ENDCHAR
STARTCHAR aring
ENCODING 229
SWIDTH 750 0
DWIDTH 6 0
BBX 4 8 1 0
BITMAP
90
60
00
60
90
F0
90
90
ENDCHAR
STARTCHAR ae
ENCODING 230
SWIDTH 875 0
DWIDTH 7 0
BBX 5 5 1 0
BITMAP
78
A0
F8
A0
B8
ENDCHAR
STARTCHAR ccedilla
ENCODING 231
SWIDTH 750 0
DWIDTH 6 0
BBX 4 7 1 -2
BITMAP
60
90
80
90
60
40
80
ENDCHAR
STARTCHAR egrave
ENCODING 232
SWIDTH 625 0
DWIDTH 5 0
BBX 3 8 1 0
BITMAP
80
40
00
E0
80
E0
80
E0
ENDCHAR
STARTCHAR eacute
ENCODING 233
SWIDTH 625 0
DWIDTH 5 0
BBX 3 8 1 0
BITMAP
20
40
00
E0
80
E0
80
E0
ENDCHAR
STARTCHAR ecircumflex
ENCODING 234
SWIDTH 625 0
DWIDTH 5 0
BBX 3 8 1 0
BITMAP
40
A0
00
E0
80
E0
80
E0
ENDCHAR
STARTCHAR edieresis
ENCODING 235
SWIDTH 625 0
DWIDTH 5 0
BBX 3 7 1 0
BITMAP
A0
00
E0
80
E0
80
E0
ENDCHAR
STARTCHAR igrave
ENCODING 236
SWIDTH 375 0
DWIDTH 3 0
BBX 2 8 0 0
BITMAP
80
40
00
40
40
40
40
40
ENDCHAR
STARTCHAR iacute
ENCODING 237
SWIDTH 375 0
DWIDTH 3 0
BBX 2 8 1 0
BITMAP
40
80
00
80
80
80
80
80
ENDCHAR
STARTCHAR icircumflex
ENCODING 238
SWIDTH 375 0
DWIDTH 3 0
BBX 3 8 0 0
BITMAP
40
A0
00
40
40
40
40
40
ENDCHAR
STARTCHAR idieresis
ENCODING 239
SWIDTH 375 0
DWIDTH 3 0
BBX 3 7 0 0
BITMAP
A0
00
40
40
40
40
40
ENDCHAR
STARTCHAR eth
ENCODING 240
SWIDTH 875 0
DWIDTH 7 0
BBX 5 5 1 0
BITMAP
70
48
E8
48
70
ENDCHAR
STARTCHAR ntilde
ENCODING 241
SWIDTH 875 0
DWIDTH 7 0
BBX 5 8 1 0
BITMAP
28
50
00
88
C8
A8
98
88
ENDCHAR
STARTCHAR ograve
ENCODING 242
SWIDTH 750 0
DWIDTH 6 0
BBX 4 8 1 0
BITMAP
40
20
00
60
90
90
90
60
ENDCHAR
STARTCHAR oacute
ENCODING 243
SWIDTH 750 0
DWIDTH 6 0
BBX 4 8 1 0
BITMAP
20
40
00
60
90
90
90
60
ENDCHAR
STARTCHAR ocircumflex
ENCODING 244
SWIDTH 750 0
DWIDTH 6 0
BBX 4 8 1 0
BITMAP
60
90
00
60
90
90
90
60
ENDCHAR
STARTCHAR otilde
ENCODING 245
SWIDTH 750 0
DWIDTH 6 0
BBX 4 8 1 0
BITMAP
50
A0
00
60
90
90
90
60
ENDCHAR
STARTCHAR odieresis
ENCODING 246
SWIDTH 750 0
DWIDTH 6 0
BBX 4 7 1 0
BITMAP
90
00
60
90
90
90
60
ENDCHAR
STARTCHAR divide
ENCODING 247
SWIDTH 625 0
DWIDTH 5 0
BBX 3 5 1 0
BITMAP
40
00
E0
00
40
ENDCHAR
STARTCHAR oslash
ENCODING 248
SWIDTH 875 0
DWIDTH 7 0
BBX 5 5 1 0
BITMAP
70
98
A8
C8
70
ENDCHAR
STARTCHAR ugrave
ENCODING 249
SWIDTH 750 0
DWIDTH 6 0
BBX 4 8 1 0
BITMAP
40
20
00
90
90
90
90
60
ENDCHAR
STARTCHAR uacute
ENCODING 250
SWIDTH 750 0
DWIDTH 6 0
BBX 4 8 1 0
BITMAP
20
40
00
90
90
90
90
60
ENDCHAR
STARTCHAR ucircumflex
ENCODING 251
SWIDTH 750 0
DWIDTH 6 0
BBX 4 8 1 0
BITMAP
60
90
00
90
90
90
90
60
ENDCHAR
STARTCHAR udieresis
ENCODING 252
SWIDTH 750 0
DWIDTH 6 0
BBX 4 7 1 0
BITMAP
90
00
90
90
90
90
60
ENDCHAR
STARTCHAR yacute
ENCODING 253
SWIDTH 875 0
DWIDTH 7 0
BBX 5 8 1 0
BITMAP
10
20
00
88
50
20
20
20
ENDCHAR
STARTCHAR thorn
ENCODING 254
SWIDTH 625 0
DWIDTH 5 0
BBX 3 5 1 0
BITMAP
80
C0
A0
C0
80
ENDCHAR
STARTCHAR ydieresis
ENCODING 255
SWIDTH 875 0
DWIDTH 7 0
BBX 5 7 1 0
BITMAP
50
00
88
50
20
20
20
ENDCHAR
STARTCHAR OE
ENCODING 338
SWIDTH 875 0
DWIDTH 7 0
BBX 5 5 1 0
BITMAP
78
A0
B8
A0
78
ENDCHAR
STARTCHAR oe
ENCODING 339
SWIDTH 875 0
DWIDTH 7 0
BBX 5 5 1 0
BITMAP
78
A0
B8
A0
78
ENDCHAR
STARTCHAR Scaron
ENCODING 352
SWIDTH 750 0
DWIDTH 6 0
BBX 4 8 1 0
BITMAP
90
60
00
70
80
60
10
E0
ENDCHAR
STARTCHAR scaron
ENCODING 353
SWIDTH 750 0
DWIDTH 6 0
BBX 4 8 1 0
BITMAP
90
60
00
70
80
60
10
E0
ENDCHAR
STARTCHAR Ydieresis
ENCODING 376
SWIDTH 875 0
DWIDTH 7 0
BBX 5 7 1 0
BITMAP
50
00
88
50
20
20
20
ENDCHAR
STARTCHAR Zcaron
ENCODING 381
SWIDTH 625 0
DWIDTH 5 0
BBX 3 8 1 0
BITMAP
A0
40
00
E0
20
40
80
E0
ENDCHAR
STARTCHAR zcaron
ENCODING 382
SWIDTH 625 0
DWIDTH 5 0
BBX 3 8 1 0
BITMAP
A0
40
00
E0
20
40
80
E0
ENDCHAR
STARTCHAR florin
ENCODING 402
SWIDTH 875 0
DWIDTH 7 0
BBX 5 6 1 -1
BITMAP
38
20
70
40
40
80
ENDCHAR
STARTCHAR circumflex
ENCODING 710
SWIDTH 625 0
DWIDTH 5 0
BBX 3 2 1 4
BITMAP
40
A0
ENDCHAR
STARTCHAR tilde
ENCODING 732
SWIDTH 750 0
DWIDTH 6 0
BBX 4 2 1 3
BITMAP
50
A0
ENDCHAR
STARTCHAR endash
ENCODING 8211
SWIDTH 750 0
DWIDTH 6 0
BBX 4 1 1 2
BITMAP
F0
ENDCHAR
STARTCHAR emdash
ENCODING 8212
SWIDTH 1000 0
DWIDTH 8 0
BBX 6 1 1 2
BITMAP
FC
ENDCHAR
STARTCHAR quoteleft
ENCODING 8216
SWIDTH 375 0
DWIDTH 3 0
BBX 1 2 1 3
BITMAP
80
80
ENDCHAR
STARTCHAR quoteright
ENCODING 8217
SWIDTH 375 0
DWIDTH 3 0
BBX 1 2 1 3
BITMAP
80
80
ENDCHAR
STARTCHAR quotesinglbase
ENCODING 8218
SWIDTH 500 0
DWIDTH 4 0
BBX 2 2 1 -1
BITMAP
40
80
ENDCHAR
STARTCHAR quotedblleft
ENCODING 8220
SWIDTH 625 0
DWIDTH 5 0
BBX 3 2 1 3
BITMAP
A0
A0
ENDCHAR
STARTCHAR quotedblright
ENCODING 8221
SWIDTH 625 0
DWIDTH 5 0
BBX 3 2 1 3
BITMAP
A0
A0
ENDCHAR
STARTCHAR quotedblbase
ENCODING 8222
SWIDTH 625 0
DWIDTH 5 0
BBX 3 2 1 0
BITMAP
A0
A0
ENDCHAR
STARTCHAR dagger
ENCODING 8224
SWIDTH 625 0
DWIDTH 5 0
BBX 3 5 1 0
BITMAP
40
E0
40
40
40
ENDCHAR
STARTCHAR daggerdbl
ENCODING 8225
SWIDTH 625 0
DWIDTH 5 0
BBX 3 5 1 0
BITMAP
40
E0
40
E0
40
ENDCHAR
STARTCHAR bullet
ENCODING 8226
SWIDTH 375 0
DWIDTH 3 0
BBX 1 1 1 2
BITMAP
80
ENDCHAR
STARTCHAR ellipsis
ENCODING 8230
SWIDTH 875 0
DWIDTH 7 0
BBX 5 1 1 0
BITMAP
A8
ENDCHAR
STARTCHAR perthousand
ENCODING 8240
SWIDTH 1000 0
DWIDTH 8 0
BBX 6 5 1 0
BITMAP
D0
D0
20
54
54
ENDCHAR
STARTCHAR guilsinglleft
ENCODING 8249
SWIDTH 500 0
DWIDTH 4 0
BBX 2 3 1 1
BITMAP
40
80
40
ENDCHAR
STARTCHAR guilsinglright
ENCODING 8250
SWIDTH 500 0
DWIDTH 4 0
BBX 2 3 1 1
BITMAP
80
40
80
ENDCHAR
STARTCHAR Euro
ENCODING 8364
SWIDTH 875 0
DWIDTH 7 0
BBX 5 5 1 0
BITMAP
30
48
E0
48
30
ENDCHAR
STARTCHAR trademark
ENCODING 8482
SWIDTH 1250 0
DWIDTH 10 0
BBX 8 3 1 3
BITMAP
FB
55
55
ENDCHAR
STARTCHAR .notdef
ENCODING -1
SWIDTH 500 0
DWIDTH 4 0
BBX 1 1 0 0
BITMAP
00
ENDCHAR
STARTCHAR .null
ENCODING -1
SWIDTH 0 0
DWIDTH 0 0
BBX 1 1 0 0
BITMAP
00
ENDCHAR
STARTCHAR nonmarkingreturn
ENCODING -1
SWIDTH 500 0
DWIDTH 4 0
BBX 1 1 0 0
BITMAP
00
ENDCHAR
ENDFONT
